HIERARCHY
ROOT joint_Root
{
	OFFSET 0.0 0.0 0.0
	CHANNELS 6 Xposition Yposition Zposition Zrotation Xrotation Yrotation 
	JOINT Hips
	{
		OFFSET -0.726466 93.3139 -2.00062
		CHANNELS 6 Xposition Yposition Zposition Zrotation Xrotation Yrotation 
		JOINT Spine
		{
			OFFSET 15.7357 0.0 0.0
			CHANNELS 6 Xposition Yposition Zposition Zrotation Xrotation Yrotation 
			JOINT Chest
			{
				OFFSET 8.98455 -0.406207 0.0
				CHANNELS 6 Xposition Yposition Zposition Zrotation Xrotation Yrotation 
				JOINT Neck
				{
					OFFSET 16.3773 0.0 0.0
					CHANNELS 6 Xposition Yposition Zposition Zrotation Xrotation Yrotation 
					JOINT Head
					{
						OFFSET 6.45672 0.0 0.0
						CHANNELS 6 Xposition Yposition Zposition Zrotation Xrotation Yrotation 
						End Site
						{
							OFFSET 0.0 0.0 0.0
						}
					}
				}
				JOINT Shoulder_L
				{
					OFFSET 12.9942 -0.242716 4.98039
					CHANNELS 6 Xposition Yposition Zposition Zrotation Xrotation Yrotation 
					JOINT UpperArm_L
					{
						OFFSET 5.34809 0.0 0.0
						CHANNELS 6 Xposition Yposition Zposition Zrotation Xrotation Yrotation 
						JOINT LowerArm_L
						{
							OFFSET 24.3286 1.87007e-05 0.0
							CHANNELS 6 Xposition Yposition Zposition Zrotation Xrotation Yrotation 
							JOINT Hand_L
							{
								OFFSET 22.2916 0.0 0.0
								CHANNELS 6 Xposition Yposition Zposition Zrotation Xrotation Yrotation 
								End Site
								{
									OFFSET 0.0 0.0 0.0
								}
							}
						}
					}
				}
				JOINT Shoulder_R
				{
					OFFSET 12.9945 -0.242716 -4.98039
					CHANNELS 6 Xposition Yposition Zposition Zrotation Xrotation Yrotation 
					JOINT UpperArm_R
					{
						OFFSET -5.34813 0.0 0.0
						CHANNELS 6 Xposition Yposition Zposition Zrotation Xrotation Yrotation 
						JOINT LowerArm_R
						{
							OFFSET -24.3289 0.000322201 0.0
							CHANNELS 6 Xposition Yposition Zposition Zrotation Xrotation Yrotation 
							JOINT Hand_R
							{
								OFFSET -22.2915 -0.000108084 0.0
								CHANNELS 6 Xposition Yposition Zposition Zrotation Xrotation Yrotation 
								End Site
								{
									OFFSET 0.0 0.0 0.0
								}
							}
						}
					}
				}
			}
		}
		JOINT UpperLeg_L
		{
			OFFSET -2.19248 -6.46944 0.0
			CHANNELS 6 Xposition Yposition Zposition Zrotation Xrotation Yrotation 
			JOINT LowerLeg_L
			{
				OFFSET 39.0811 0.0 -1.23785e-05
				CHANNELS 6 Xposition Yposition Zposition Zrotation Xrotation Yrotation 
				JOINT Foot_L
				{
					OFFSET 40.9854 0.0 -1.26872e-05
					CHANNELS 6 Xposition Yposition Zposition Zrotation Xrotation Yrotation 
					JOINT Toes_L
					{
						OFFSET 11.7543 0.0 0.0
						CHANNELS 6 Xposition Yposition Zposition Zrotation Xrotation Yrotation 
						End Site
						{
							OFFSET 0.0 0.0 0.0
						}
					}
				}
			}
		}
		JOINT UpperLeg_R
		{
			OFFSET -2.19251 6.46944 0.0
			CHANNELS 6 Xposition Yposition Zposition Zrotation Xrotation Yrotation 
			JOINT LowerLeg_R
			{
				OFFSET -39.0811 -0.00228153 -0.0401928
				CHANNELS 6 Xposition Yposition Zposition Zrotation Xrotation Yrotation 
				JOINT Foot_R
				{
					OFFSET -40.9854 0.0 0.0
					CHANNELS 6 Xposition Yposition Zposition Zrotation Xrotation Yrotation 
					JOINT Toes_R
					{
						OFFSET -11.7543 0.0 0.0
						CHANNELS 6 Xposition Yposition Zposition Zrotation Xrotation Yrotation 
						End Site
						{
							OFFSET 0.0 0.0 0.0
						}
					}
				}
			}
		}
	}
}
MOTION
Frames:	4
Frame Time:	0.0333333
0.000000 0.000000 0.000000 0.000000 0.000000 -0.000000 -2.362730 93.257000 -2.017940 88.816500 -1.587270 -0.191066 15.735700 0.000005 -0.000001 101.481000 86.982400 -102.854000 8.984550 -0.406207 -0.000000 -1.834430 1.315960 -2.724080 16.377300 -0.000001 -0.000001 1.473420 -4.053310 7.018240 6.456720 -0.000001 -0.000000 3.910570 -1.083730 -5.425100 12.994200 -0.242716 4.980390 -89.862400 -0.434157 -72.412000 5.348090 -0.000007 -0.000001 -71.730600 32.843400 -9.593180 24.328600 0.000019 0.000005 4.583370 11.811200 -21.387600 22.291600 -0.000001 0.000005 4.709000 5.478900 -5.706100 12.994500 -0.242716 -4.980390 93.228100 -6.986760 -65.123900 -5.348130 -0.000001 -0.000004 -88.510000 -55.146600 -130.580000 -24.328900 0.000322 -0.000009 0.663119 5.832340 -6.507930 -22.291500 -0.000108 -0.000004 28.777200 4.702450 13.113900 -2.192480 -6.469440 -0.000000 -175.826000 -9.276410 -4.182230 39.081100 -0.000007 -0.000012 -0.052946 0.201843 14.698200 40.985400 -0.000006 -0.000013 -1.316450 4.556140 -60.693200 11.754300 -0.000000 0.000003 -0.000006 -0.000079 -16.580600 -2.192510 6.469440 -0.000001 -178.624000 12.818500 178.504000 -39.081100 -0.002282 -0.040193 -0.005751 0.043816 11.716600 -40.985400 0.000008 0.000006 4.709450 6.561350 -61.338300 -11.754300 -0.000006 -0.000006 -0.006401 -0.074439 -19.603000
0.000000 0.000000 0.000000 0.000000 0.000000 -0.000000 -2.365520 93.250500 -2.035600 88.819200 -1.798180 -0.143034 15.735700 0.000005 -0.000001 100.877000 86.977800 -102.199000 8.984550 -0.406207 -0.000000 -1.814640 1.250800 -2.623310 16.377300 -0.000001 -0.000001 1.511000 -3.956880 6.901970 6.456720 -0.000001 -0.000000 3.900100 -0.983587 -5.581670 12.994200 -0.242716 4.980390 -89.853600 -0.460979 -72.375900 5.348090 -0.000007 -0.000001 -71.595800 32.220300 -9.474930 24.328600 0.000019 0.000005 4.537210 12.023400 -20.853800 22.291600 -0.000001 0.000005 4.780970 5.473770 -5.512000 12.994500 -0.242716 -4.980390 93.217500 -6.938340 -65.044700 -5.348130 -0.000001 -0.000004 -87.361500 -54.846600 -129.744000 -24.328900 0.000322 -0.000009 0.790746 5.989470 -7.544650 -22.291500 -0.000108 -0.000004 28.000900 4.683740 13.446000 -2.192480 -6.469440 -0.000000 -175.828000 -9.370580 -4.147410 39.081100 -0.000007 -0.000012 -0.052934 0.200858 14.763800 40.985400 -0.000006 -0.000013 -1.321350 4.466990 -60.734400 11.754300 -0.000000 0.000003 -0.000003 -0.000045 -16.579300 -2.192510 6.469440 -0.000001 -178.655000 12.725800 178.482000 -39.081100 -0.002282 -0.040193 -0.007302 0.050858 11.813500 -40.985400 0.000008 0.000006 4.599920 6.665190 -61.347300 -11.754300 -0.000006 -0.000006 -0.006620 -0.076367 -19.681600
0.000000 0.000000 0.000000 0.000000 0.000000 -0.000000 -2.349810 93.259700 -2.079800 88.808500 -2.124120 -0.115503 15.735700 0.000005 -0.000001 100.342000 86.979800 -101.573000 8.984550 -0.406207 -0.000000 -1.810020 1.186980 -2.443340 16.377300 -0.000001 -0.000001 1.544460 -3.922630 6.866620 6.456720 -0.000001 -0.000000 3.976930 -0.905761 -5.684400 12.994200 -0.242716 4.980390 -89.828700 -0.538618 -72.355600 5.348090 -0.000007 -0.000001 -71.353200 31.970100 -9.406280 24.328600 0.000019 0.000005 4.517160 12.294700 -20.355100 22.291600 -0.000001 0.000005 5.024390 5.471170 -5.414520 12.994500 -0.242716 -4.980390 93.266700 -7.047310 -65.051600 -5.348130 -0.000001 -0.000004 -84.328100 -55.170000 -128.020000 -24.328900 0.000322 -0.000009 1.062110 5.935230 -10.174900 -22.291500 -0.000108 -0.000004 26.385800 4.736810 12.485900 -2.192480 -6.469440 -0.000000 -175.834000 -9.553120 -4.060160 39.081100 -0.000007 -0.000012 -0.051520 0.196566 14.686700 40.985400 -0.000006 -0.000013 -1.325810 4.329350 -60.699500 11.754300 -0.000000 0.000003 -0.000005 -0.000073 -16.580400 -2.192510 6.469440 -0.000001 -178.644000 12.494700 178.472000 -39.081100 -0.002282 -0.040193 -0.006365 0.046461 11.793000 -40.985400 0.000008 0.000006 4.717760 6.749840 -61.303300 -11.754300 -0.000006 -0.000006 -0.006665 -0.076757 -19.697500
0.000000 0.000000 0.000000 0.000000 0.000000 -0.000000 -2.333980 93.254400 -2.118130 88.817800 -2.475230 -0.055143 15.735700 0.000005 -0.000001 100.198000 86.961200 -101.327000 8.984550 -0.406207 -0.000000 -1.772070 1.169680 -2.239340 16.377300 -0.000001 -0.000001 1.582830 -3.978450 6.916020 6.456720 -0.000001 -0.000000 4.026120 -0.994389 -5.691030 12.994200 -0.242716 4.980390 -89.810200 -0.599887 -72.443000 5.348090 -0.000007 -0.000001 -71.094800 31.581600 -9.341100 24.328600 0.000019 0.000005 4.533880 12.598800 -19.978200 22.291600 -0.000001 0.000005 4.931470 5.468790 -5.325080 12.994500 -0.242716 -4.980390 93.352800 -7.249550 -65.096600 -5.348130 -0.000001 -0.000004 -80.531800 -55.758600 -126.383000 -24.328900 0.000322 -0.000009 1.312770 5.373260 -13.763700 -22.291500 -0.000108 -0.000004 25.189700 4.817810 10.975200 -2.192480 -6.469440 -0.000000 -175.839000 -9.762540 -3.992180 39.081100 -0.000007 -0.000012 -0.052950 0.201388 14.731000 40.985400 -0.000006 -0.000013 -1.335500 4.207190 -60.730900 11.754300 -0.000000 0.000003 -0.000005 -0.000069 -16.580200 -2.192510 6.469440 -0.000001 -178.696000 12.236100 178.414000 -39.081100 -0.002282 -0.040193 -0.007893 0.053176 11.923500 -40.985400 0.000008 0.000006 4.556000 6.869370 -61.286300 -11.754300 -0.000006 -0.000006 -0.006612 -0.076296 -19.678700
